<svg xmlns="http://www.w3.org/2000/svg" width="951.561" height="665.127" viewBox="0 0 951.561 665.127">
  <g id="felicidades_100" data-name="felicidades 100" transform="translate(-0.003 0)">
    <path id="Trazado_74" data-name="Trazado 74" d="M166.6,372.686c.91,56.174,21.905,62.255,47.689,56.4,29.454-6.693,53.63-27.671,65.545-55.427l8.217-19.142a52.217,52.217,0,0,0-27.384-68.58h0a52.217,52.217,0,0,0-68.58,27.384C165.643,323.7,160.421,345.209,166.6,372.686Z" transform="translate(-124.215 -117.436)" fill="#2f2e41"/>
    <path id="Trazado_75" data-name="Trazado 75" d="M332.389,259.626l7.914-13.391a12.58,12.58,0,0,0-7.109-18.417h0A12.58,12.58,0,0,0,316.9,240.241l.465,14.395L280.174,356.556l20.281,4.234Z" transform="translate(-124.215 -117.436)" fill="#9f616a"/>
    <path id="Trazado_76" data-name="Trazado 76" d="M136.73,510.879l-9.741,12.127a12.58,12.58,0,0,0,4.412,19.242h0a12.58,12.58,0,0,0,17.9-9.975l1.59-14.314,51.332-95.583-19.471-7.08Z" transform="translate(-124.215 -117.436)" fill="#9f616a"/>
    <path id="Trazado_77" data-name="Trazado 77" d="M196.912,611.773,198.346,629l.336,4.018,95.335-9.169a21.02,21.02,0,0,0,16.833-29.471l-30.746-66.006-10.62-22.8-46.021-10.62c-37.95,29.047-3.806,61.1,39.154,93.53q2.522,1.912,5.1,3.823Z" transform="translate(-124.215 -117.436)" fill="#2f2e41"/>
    <path id="Trazado_78" data-name="Trazado 78" d="M164.789,671.411h0a6.85,6.85,0,0,0,6.249-2.418l31.184-37.75-1.77-17.7-10.633-6.38a6.987,6.987,0,0,0-10.094,3.426l-20.34,51.527a6.85,6.85,0,0,0,5.4,9.3Z" transform="translate(-124.215 -117.436)" fill="#2f2e41"/>
    <path id="Trazado_79" data-name="Trazado 79" d="M191.6,608.232l1.77,21.241,4.974-.478,90.361-8.691a21.02,21.02,0,0,0,16.833-29.471L280.105,533.89v-5.523l-10.62-22.8-46.021-10.62c-37.95,29.047-3.806,61.1,39.154,93.53l-.212.283Z" transform="translate(-124.215 -117.436)" opacity="0.2"/>
    <path id="Trazado_80" data-name="Trazado 80" d="M155.938,664.331h0a6.849,6.849,0,0,0,6.249-2.418l31.185-37.75-1.77-17.7-10.633-6.38a6.987,6.987,0,0,0-10.094,3.426l-20.339,51.526a6.849,6.849,0,0,0,5.4,9.3Z" transform="translate(-124.215 -117.436)" fill="#2f2e41"/>
    <path id="Trazado_81" data-name="Trazado 81" d="M188.062,604.692l1.77,21.241,95.335-9.171a21.023,21.023,0,0,0,16.841-29.467L276.565,530.35V498.489l-61.952-10.62c-39.443,30.187-1.012,63.627,44.251,97.353Z" transform="translate(-124.215 -117.436)" fill="#2f2e41"/>
    <circle id="Elipse_29" data-name="Elipse 29" cx="26.551" cy="26.551" r="26.551" transform="translate(97.478 184.576)" fill="#9f616a"/>
    <path id="Trazado_82" data-name="Trazado 82" d="M212.843,372.815,250.014,397.6l31.861-7.08-17.7-17.7V346.264l-28.321-1.77C235.259,355.1,229.184,364.8,212.843,372.815Z" transform="translate(-124.215 -117.436)" fill="#9f616a"/>
    <path id="Trazado_83" data-name="Trazado 83" d="M207.533,496.719l69.032,8.85L292.5,431.227c7.4-19.733,3.155-37.168-10.547-52.737a11.824,11.824,0,0,0-11.236-9.5l-6.537.285c.74,23.475-16.556,17.821-42.481-1.77l-3.13.939a17.583,17.583,0,0,0-12.341,19.418l2.854,19.268A131.832,131.832,0,0,0,214.7,429.6C221.773,450.748,219.244,473.14,207.533,496.719Z" transform="translate(-124.215 -117.436)" fill="#3c9eff"/>
    <path id="Trazado_84" data-name="Trazado 84" d="M175.672,417.066l31.861,10.62,14.16-51.332-4.8-2.181a17.2,17.2,0,0,0-22.285,7.538Z" transform="translate(-124.215 -117.436)" fill="#3c9eff"/>
    <path id="Trazado_85" data-name="Trazado 85" d="M145.27,251.839l17.7,19.47,21.24-33.631-26.551-14.16Z" fill="#3c9eff"/>
    <path id="Trazado_86" data-name="Trazado 86" d="M217.268,320.6c16.684,6.291,34.49,5.639,53.1,0v-21.24h-53.1Z" transform="translate(-124.215 -117.436)" fill="#2f2e41"/>
    <path id="Trazado_87" data-name="Trazado 87" d="M921.132,567.779l-18.3,7.627L780.8,409.141,692.327,578.457l-22.88-4.576L736.563,340.5h77.793Z" fill="#2f2e41"/>
    <path id="Trazado_88" data-name="Trazado 88" d="M1069.9,724h0a7.976,7.976,0,0,1-6.078-.783l-38.6-22.226a7.833,7.833,0,0,1-1.63-12.328l3.45-3.45,18.3-1.525,27.982,26.863A7.976,7.976,0,0,1,1069.9,724Z" transform="translate(-124.215 -117.436)" fill="#2f2e41"/>
    <path id="Trazado_89" data-name="Trazado 89" d="M770.63,730.1h0a7.976,7.976,0,0,0,6.078-.783l38.6-22.226a7.833,7.833,0,0,0,1.63-12.328l-3.45-3.45-18.3-1.525-27.982,26.863A7.976,7.976,0,0,0,770.63,730.1Z" transform="translate(-124.215 -117.436)" fill="#2f2e41"/>
    <path id="Trazado_90" data-name="Trazado 90" d="M808.915,215.4l-7.627,4.576L785.483,194.3a11.551,11.551,0,0,1,7.458-17.357h0a11.551,11.551,0,0,1,13.9,10.45Z" transform="translate(-124.215 -117.436)" fill="#ffb9b9"/>
    <path id="Trazado_91" data-name="Trazado 91" d="M1020.19,415.361l3.164-8.312,28.3,10.411a11.551,11.551,0,0,1,4.872,18.252h0a11.551,11.551,0,0,1-17.385.382Z" transform="translate(-124.215 -117.436)" fill="#ffb9b9"/>
    <circle id="Elipse_30" data-name="Elipse 30" cx="22.88" cy="22.88" r="22.88" transform="translate(753.342 143.729)" fill="#ffb9b9"/>
    <path id="Trazado_92" data-name="Trazado 92" d="M796.052,215.42H764.019V180.337l27.457-3.051Z" fill="#ffb9b9"/>
    <path id="Trazado_93" data-name="Trazado 93" d="M943.147,467.088H856.2c3.066-48.512,5.494-95.393,0-122.029l5.056-24.267a13.672,13.672,0,0,1,15.081-10.778l11.9,1.487c8.056,14.164,17.793,14.027,28.982,1.525h14.329a14.365,14.365,0,0,1,14.362,14.65h0a181.464,181.464,0,0,1,3.687,52.081Z" transform="translate(-124.215 -117.436)" fill="#3f3d56"/>
    <path id="Trazado_94" data-name="Trazado 94" d="M672.5,97.967l12.2-6.1,65.591,108.3-18.3,27.456Z" fill="#3f3d56"/>
    <path id="Trazado_95" data-name="Trazado 95" d="M1020.36,419.7l10.428-8.8-55.413-77.648a49.111,49.111,0,0,0-48.844-19.776l-1.748.321,20.953,36.668,27.6,20.894Z" transform="translate(-124.215 -117.436)" fill="#3f3d56"/>
    <path id="Trazado_96" data-name="Trazado 96" d="M926.9,270.538s4.275-9.406-6.841-13.681c0,0-9.406-15.392-28.218-5.131,0,0-12.826,5.131-12.826,18.812s-4.275,16.247-4.275,16.247,6.367-6.532,8.077-11.662,15.01-6.295,20.141-1.164,17.957,4.275,17.957,4.275l-.855,18.812s4.275-11.116,5.986-11.116S929.463,270.538,926.9,270.538Z" transform="translate(-124.215 -117.436)" fill="#2f2e41"/>
    <ellipse id="Elipse_31" data-name="Elipse 31" cx="140" cy="7.292" rx="140" ry="7.292" transform="translate(660.571 650.544)" fill="#e6e6e6"/>
    <ellipse id="Elipse_32" data-name="Elipse 32" cx="74" cy="3.854" rx="74" ry="3.854" transform="translate(27.571 653.982)" fill="#e6e6e6"/>
    <path id="Trazado_97" data-name="Trazado 97" d="M791.169,245.725,341.3,286.044a8.374,8.374,0,0,1-9.078-7.584l-10-111.594a8.374,8.374,0,0,1,7.584-9.078L779.674,117.47a8.374,8.374,0,0,1,9.078,7.584l10,111.593a8.374,8.374,0,0,1-7.584,9.078Z" transform="translate(-124.215 -117.436)" fill="#3c9eff"/>
    <circle id="Elipse_33" data-name="Elipse 33" cx="35.13" cy="35.13" r="35.13" transform="translate(234.525 64.123)" fill="#fff"/>
    <path id="Trazado_98" data-name="Trazado 98" d="M472.588,186.12a5.855,5.855,0,1,0,1.045,11.663l274.92-24.639a5.855,5.855,0,0,0-1.045-11.663Z" transform="translate(-124.215 -117.436)" fill="#fff"/>
    <path id="Trazado_99" data-name="Trazado 99" d="M475.724,221.11a5.855,5.855,0,1,0,1.045,11.663l274.92-24.639a5.855,5.855,0,1,0-1.045-11.663Z" transform="translate(-124.215 -117.436)" fill="#fff"/>
    <path id="Trazado_64" data-name="Trazado 64" d="M626.582,328.8a35.619,35.619,0,1,1,35.463-35.618A35.541,35.541,0,0,1,626.582,328.8Z" transform="translate(-356.913 -193.458)" fill="#0ec814"/>
    <path id="Path_395" data-name="Path 395" d="M619.169,297.931a3.473,3.473,0,0,1-2.09-.695l-.037-.028-7.871-6.021a3.5,3.5,0,0,1,4.256-5.552l5.1,3.91,12.048-15.718a3.5,3.5,0,0,1,4.9-.648h0l-.075.1.077-.1a3.5,3.5,0,0,1,.647,4.9l-14.171,18.479a3.5,3.5,0,0,1-2.782,1.364Z" transform="translate(-350.534 -188.135)" fill="#fff"/>
  </g>
</svg>
