<svg xmlns="http://www.w3.org/2000/svg" width="727.21" height="478.359" viewBox="0 0 727.21 478.359">
  <g id="reprobado" transform="translate(0 -0.001)">
    <path id="Trazado_19" data-name="Trazado 19" d="M575.583,465.3A127.241,127.241,0,1,1,702.824,338.062,127.241,127.241,0,0,1,575.583,465.3Zm0-251.07A123.828,123.828,0,1,0,699.411,338.061,123.828,123.828,0,0,0,575.583,214.233Zm-4.269,203.134-17.086-4.235,5.633-22.547c-2.554-.643-5.121-1.31-7.669-1.992l-5.641,22.613-17.067-4.235,5.7-22.9-2-.523c-2-.524-4.034-1.056-6.15-1.575l-19.878-4.961,8.21-18.963,1.42.377c1.965.522,4.041,1.063,5.771,1.5l-.24-.36,4.539,1.362a3.312,3.312,0,0,0,4.2-2.152l8.6-34.46-.008,0,6.806-27.278c.135-3.2-1.547-5.2-5.136-6.1l-3.831-.961.095-.061c-1.811-.439-4.086-.972-6.229-1.462l-1.7-.387,4.5-18.056,20.651,5.158q3.476.852,7.125,1.684l5.656-22.642,17.084,4.234-5.525,22.168q1.458.34,2.914.672c1.613.371,3.219.739,4.81,1.122l5.5-22.034,17.151,4.23-5.652,22.8c13.547,4.857,30.168,13.588,27.27,33.021l-.138.927-.164.073c-1.692,9.839-6.685,16.39-14.872,19.526,11.951,7.64,15.222,18.628,10.011,33.475-8.231,23.539-29.151,23.535-48.928,19.989Zm-12.945-6.725,10.458,2.592,5.677-22.76,1.582.3c27.015,5.1,40.534.042,46.658-17.471,5.1-14.519,1.334-24.47-11.84-31.321l-4.1-2.134,4.506-1.042c9.414-2.179,14.742-8.331,16.292-18.81l.138-.928.139-.062c1.529-13.1-6.723-22.034-26.6-28.889l-1.476-.508,5.579-22.5-10.529-2.6-5.5,22.037-1.657-.414c-2.108-.527-4.25-1.019-6.4-1.513-1.538-.353-3.081-.707-4.621-1.077l-1.674-.4,5.533-22.2-10.46-2.592-5.641,22.58-1.629-.371c-3.013-.686-5.958-1.37-8.817-2.072l-17.345-4.333L533.8,285.521a82,82,0,0,1,8.394,2.126c5.152,1.312,7.939,4.861,7.65,9.746l-.048.312-6.048,24.238.02.008-.406,1.539-.08-.02-.032.1.095.024L534.336,359.7a6.72,6.72,0,0,1-8.457,4.5l0-.016c-1.3-.176-3.724-.8-8.553-2.085l-5.443,12.573,15.966,3.984c2.127.522,4.176,1.057,6.2,1.587,1.215.317,2.419.633,3.626.942l1.644.419-5.7,22.874,10.443,2.591,5.658-22.682,1.681.455c3.623.982,7.3,1.938,10.938,2.841L564,388.1Zm22.622-34.529c-8.259,0-17.314-2.38-23.141-3.911-1.009-.265-1.909-.5-2.677-.692l-1.66-.41,8.387-33.645,1.659.417c.937.236,2.087.494,3.391.788,9.5,2.139,25.389,5.719,31.091,14.972a13.61,13.61,0,0,1,1.947,8.967h.135l-.493,2.119a13.426,13.426,0,0,1-6.313,8.643c-3.4,2.016-7.742,2.749-12.325,2.749Zm-23.343-7.492,1.069.28c7.967,2.1,24.547,6.449,32.859,1.526a9.826,9.826,0,0,0,4.478-5.618l.228-.914a10.527,10.527,0,0,0-1.149-8.47c-4.948-8.03-20.552-11.544-28.935-13.432-.642-.145-1.247-.282-1.81-.411ZM587.2,331.084c-6.783,0-14.031-1.929-18.718-3.176-.862-.229-1.63-.434-2.283-.6l-1.657-.411,7.649-30.806,1.656.411c.768.191,1.708.4,2.773.633,7.791,1.72,20.83,4.6,25.771,12.612a12.83,12.83,0,0,1,1.8,8.48h.132l-.427,2.121a12.857,12.857,0,0,1-6.016,8.31,21.029,21.029,0,0,1-10.682,2.421Zm-18.527-6.658.687.182c6.905,1.837,19.758,5.258,26.789,1.113a9.088,9.088,0,0,0,3.94-4.638l.4-1.566a9.868,9.868,0,0,0-1-7.975c-4.183-6.784-16.816-9.573-23.6-11.071l-1.2-.266Z" transform="translate(-236.395 -210.82)" fill="#3f3d56"/>
    <path id="Trazado_20" data-name="Trazado 20" d="M641.076,438.032a10.064,10.064,0,0,1,16.141-.352l33.834-11.5-4.69,17.968-31.41,8.166a10.111,10.111,0,0,1-13.875-14.281Z" transform="translate(-236.395 -210.82)" fill="#ffb8b8"/>
    <path id="Trazado_21" data-name="Trazado 21" d="M906.826,687.743a246.3,246.3,0,0,1,20.385-77.735q4.6-10.278,10.128-20.1c.947-1.685-1.644-3.2-2.59-1.514a249.708,249.708,0,0,0-27.786,76.655q-2.086,11.268-3.136,22.7c-.178,1.922,2.823,1.909,3,0Z" transform="translate(-236.395 -210.82)" fill="#e6e6e6"/>
    <circle id="Elipse_22" data-name="Elipse 22" cx="19" cy="19" r="19" transform="translate(689.21 345.897)" fill="#e6e6e6"/>
    <path id="Trazado_22" data-name="Trazado 22" d="M908.77,688.248a159.788,159.788,0,0,1,13.225-50.43q2.985-6.667,6.57-13.041a.974.974,0,0,0-1.681-.982,161.994,161.994,0,0,0-18.026,49.73q-1.353,7.31-2.034,14.724c-.115,1.247,1.832,1.239,1.946,0Z" transform="translate(-236.395 -210.82)" fill="#e6e6e6"/>
    <circle id="Elipse_23" data-name="Elipse 23" cx="12.326" cy="12.326" r="12.326" transform="translate(684.557 392.425)" fill="#e6e6e6"/>
    <path id="Trazado_23" data-name="Trazado 23" d="M906.314,687.084a159.79,159.79,0,0,1-20.59-47.9q-1.748-7.093-2.841-14.324a.974.974,0,0,0-1.929.259,162,162,0,0,0,16.374,50.3q3.429,6.6,7.452,12.861c.676,1.054,2.206-.15,1.535-1.2Z" transform="translate(-236.395 -210.82)" fill="#e6e6e6"/>
    <circle id="Elipse_24" data-name="Elipse 24" cx="12.326" cy="12.326" r="12.326" transform="translate(632.216 391.56)" fill="#e6e6e6"/>
    <path id="Trazado_24" data-name="Trazado 24" d="M807.705,509.345a10.056,10.056,0,0,0-4.418-14.773l2.591-35.641L789.675,468l.024,32.454a10.11,10.11,0,0,0,18.006,8.887Z" transform="translate(-236.395 -210.82)" fill="#ffb8b8"/>
    <path id="Trazado_25" data-name="Trazado 25" d="M803.674,370.8,808.1,484.217l-18-1-4-119,3.8-1.786a9.665,9.665,0,0,1,13.773,8.368Z" transform="translate(-236.395 -210.82)" fill="#3c9eff"/>
    <path id="Trazado_26" data-name="Trazado 26" d="M511.612,466.235h-12.26l-5.832-47.288h18.094Z" fill="#ffb8b8"/>
    <path id="Trazado_27" data-name="Trazado 27" d="M490.6,462.731h23.644v14.887H475.708A14.887,14.887,0,0,1,490.6,462.731Z" fill="#2f2e41"/>
    <path id="Trazado_28" data-name="Trazado 28" d="M613.615,451.583l-11.126,5.151-25.16-40.462,16.42-7.6Z" fill="#ffb8b8"/>
    <path id="Trazado_29" data-name="Trazado 29" d="M832.188,665.526h23.644v14.887H817.3A14.887,14.887,0,0,1,832.188,665.526Z" transform="translate(-441.71 202.891) rotate(-24.841)" fill="#2f2e41"/>
    <path id="Trazado_30" data-name="Trazado 30" d="M718.9,522.728l12.644,144.289,17-2,12.564-131.8,69.436,125.8,18-5s-57.936-173.3-62.436-187.8c-4.933-15.9-44-22-44-22l-1.5-1.5C723.818,465.315,717.094,494.635,718.9,522.728Z" transform="translate(-236.395 -210.82)" fill="#2f2e41"/>
    <circle id="Elipse_25" data-name="Elipse 25" cx="24.561" cy="24.561" r="24.561" transform="translate(525.298 89.971)" fill="#ffb8b8"/>
    <path id="Trazado_31" data-name="Trazado 31" d="M801.674,372.742l-17.07,88.97s-25.94-5.18-35.18-11.42c-3.66-2.48-6.98-5.04-9.78-7.36-.55-.45-1.07-.9-1.58-1.33-4.62-3.95-7.46-6.89-7.46-6.89s1.479-7.25,3.29-15.83c2.02-9.61,4.47-20.9,5.72-25.51,2.75-10.11,12.19-21.89,19.55-29.91a21.738,21.738,0,0,1,21.47-6.36l13.32,3.44A10.543,10.543,0,0,1,801.674,372.742Z" transform="translate(-236.395 -210.82)" fill="#3c9eff"/>
    <path id="Trazado_32" data-name="Trazado 32" d="M760.394,411.6s-9.18,19.08-22.33,30c-4.62-3.95-7.46-6.89-7.46-6.89s1.479-7.25,3.29-15.83C744.914,413.063,756.274,409.393,760.394,411.6Z" transform="translate(-236.395 -210.82)" opacity="0.2"/>
    <path id="Trazado_33" data-name="Trazado 33" d="M776.674,376.677a16.325,16.325,0,0,0-2.831-1.125,12.5,12.5,0,0,0-11.545,2.66l-53.958,39.523-42.914,14.435,7.754,18.341,63.976-15.624,42.43-37.707a12.754,12.754,0,0,0-2.911-20.5Z" transform="translate(-236.395 -210.82)" fill="#3c9eff"/>
    <path id="Trazado_34" data-name="Trazado 34" d="M787.708,349.687c3.5-5.232,6.254-12.488,2.406-17.466-3.8-4.914-11.292-4.19-17.11-6.365-8.1-3.029-12.8-12.549-11.338-21.076s8.31-15.594,16.464-18.486,17.348-1.951,25.333,1.379c9.829,4.1,18.261,12.03,21.8,22.076s1.646,22.108-5.689,29.83c-7.864,8.278-20.206,10.484-31.623,10.351" transform="translate(-236.395 -210.82)" fill="#2f2e41"/>
    <path id="Trazado_35" data-name="Trazado 35" d="M826.277,320.727c1,5.591,7.134,8.766,12.771,9.464s11.468-.2,16.955,1.269c9.674,2.584,16.055,11.888,19.567,21.266s5.07,19.5,9.633,28.412,13.41,16.771,23.389,15.938a25.732,25.732,0,0,1-48.394-1.569c-3.666-11.317.542-24.813-5.868-34.833-3.547-5.545-9.673-8.807-15.579-11.713s-12.106-5.889-16.066-11.148-4.751-13.563.129-17.981" transform="translate(-236.395 -210.82)" fill="#2f2e41"/>
    <path id="Trazado_36" data-name="Trazado 36" d="M945.88,688.964H625.586a1.191,1.191,0,0,1,0-2.381H945.88a1.191,1.191,0,0,1,0,2.381Z" transform="translate(-236.395 -210.82)" fill="#3f3d56"/>
    <path id="Trazado_37" data-name="Trazado 37" d="M557.88,688.964H237.586a1.191,1.191,0,1,1,0-2.381H557.88a1.191,1.191,0,0,1,0,2.381Z" transform="translate(-236.395 -210.82)" fill="#3f3d56"/>
    <path id="Trazado_38" data-name="Trazado 38" d="M205.8,465.134l11.721-3.6-8.3-46.919-17.3,5.309Z" fill="#a0616a"/>
    <path id="Trazado_39" data-name="Trazado 39" d="M439.993,667.4h38.531v14.887H454.88A14.887,14.887,0,0,1,439.993,667.4h0Z" transform="translate(859.901 974.421) rotate(162.939)" fill="#2f2e41"/>
    <path id="Trazado_40" data-name="Trazado 40" d="M101.8,465.4h12.26l5.832-47.288H101.8Z" fill="#a0616a"/>
    <path id="Trazado_41" data-name="Trazado 41" d="M335.571,672.72H374.1v14.887H350.458a14.887,14.887,0,0,1-14.887-14.887h0Z" transform="translate(473.309 1149.49) rotate(179.997)" fill="#2f2e41"/>
    <path id="Trazado_42" data-name="Trazado 42" d="M341.319,519.146a9.162,9.162,0,0,1,.318-14.046l9.505-119.7,19.331,4.83L354.995,506.994a9.212,9.212,0,0,1-13.677,12.152Z" transform="translate(-236.395 -210.82)" fill="#a0616a"/>
    <circle id="Elipse_26" data-name="Elipse 26" cx="24.561" cy="24.561" r="24.561" transform="translate(126.073 80.04)" fill="#a0616a"/>
    <path id="Trazado_43" data-name="Trazado 43" d="M353.483,387.78c-5.837-8.013-6.017-19.049.271-26.714,4.1-5,10.966-9,22.425-9,30.543,0,42.128,24.224,42.128,24.224s12.638,23.171,5.266,44.234-7.372,23.171-7.372,23.171l-48.447-4.213S375.927,418.592,353.483,387.78Z" transform="translate(-236.395 -210.82)" fill="#ccc"/>
    <path id="Trazado_44" data-name="Trazado 44" d="M338.543,408.748,348.98,374.6a16.327,16.327,0,0,1,23.1-9.737h0a16.356,16.356,0,0,1,7.465,21.074l-13.269,30.218Z" transform="translate(-236.395 -210.82)" fill="#ccc"/>
    <path id="Trazado_45" data-name="Trazado 45" d="M415.148,438.425l41.075,212.747-22.117,6.319L380.392,517.415,356.168,660.651,333,663.811s-10.163-189.519,34.757-224.333Z" transform="translate(-236.395 -210.82)" fill="#2f2e41"/>
    <path id="Trazado_46" data-name="Trazado 46" d="M470.354,416.343a10.528,10.528,0,0,0-.963,1.349l-49.535,2.4-9.538-29.12-16.562,7.872,15.588,43.371,61.262-11.981a10.5,10.5,0,1,0-.252-13.893Z" transform="translate(-236.395 -210.82)" fill="#a0616a"/>
    <path id="Trazado_47" data-name="Trazado 47" d="M386.293,379.345a16.326,16.326,0,0,1,17.233-18.2h0a16.356,16.356,0,0,1,15.308,16.295v33L390.465,414.8Z" transform="translate(-236.395 -210.82)" fill="#ccc"/>
    <path id="Trazado_48" data-name="Trazado 48" d="M392.431,340.2c-3.686-.016-6.53-3.9-6.365-7.58s2.639-6.923,5.619-9.093,6.475-3.492,9.8-5.087,6.617-3.586,8.669-6.648a14.716,14.716,0,0,0,1.023-13.5,21.669,21.669,0,0,0-9.333-10.224,28.688,28.688,0,0,0-20.417-3.228c-6.889,1.511-17.154,5.7-21.19,11.478l-4.208,11.458c-4.288,5.156-.968,12.813,1.668,18.98s8.248,10.806,14.581,13.011a35.794,35.794,0,0,0,19.841.595" transform="translate(-236.395 -210.82)" fill="#2f2e41"/>
    <path id="Trazado_49" data-name="Trazado 49" d="M369.985,302.044c-1.809-2.9-4.944-4.743-8.186-5.825a25.724,25.724,0,0,0-33.832,23c-.344,6.314,1.634,12.489,2.8,18.705s1.393,13.082-2.034,18.4c-2.611,4.048-6.964,6.6-11.261,8.773-3.581,1.814-7.455,3.516-11.453,3.154s-8.016-3.528-7.91-7.541a32.053,32.053,0,0,0-2.682,9.08c-.281,3.156.5,6.561,2.776,8.762,3.313,3.2,8.563,2.965,13.116,2.274,9.857-1.494,19.838-4.3,27.625-10.52s12.955-16.475,10.9-26.231c-.857-4.075-2.87-7.8-4.5-11.63s-2.9-8.027-2.15-12.124a14.735,14.735,0,0,1,7.493-9.982,19.6,19.6,0,0,1,12.523-1.9c2.8.459,6.294,1.173,7.954-1.127a4.508,4.508,0,0,0-.094-4.809,13.248,13.248,0,0,0-3.593-3.56" transform="translate(-236.395 -210.82)" fill="#2f2e41"/>
    <ellipse id="Elipse_28" data-name="Elipse 28" cx="88.5" cy="95.5" rx="88.5" ry="95.5" transform="translate(250 37.001)" fill="#fff"/>
    <path id="exclamation-circle-solid" d="M193.82,100.91A92.91,92.91,0,1,1,100.91,8,92.905,92.905,0,0,1,193.82,100.91Zm-92.91,18.732a17.233,17.233,0,1,0,17.233,17.233A17.233,17.233,0,0,0,100.91,119.642ZM84.549,57.7l2.779,50.951a4.5,4.5,0,0,0,4.489,4.251H110a4.5,4.5,0,0,0,4.489-4.251L117.272,57.7a4.5,4.5,0,0,0-4.489-4.741H89.037A4.5,4.5,0,0,0,84.549,57.7Z" transform="translate(238 24.18)" fill="#fd1414"/>
  </g>
</svg>
